<svg xmlns="http://www.w3.org/2000/svg" viewBox="0 0 1510 248" class="w-full h-full text-black left-[-1px] relative will-change-auto"><g style="transform: translateX(78px) translateY(124px) scale(0.75); transform-origin: 49.0125px 0px;"><g fill="currentColor" fill-rule="evenodd"><path d="M0.25,248.085 L52.252,248.085 L52.252,0.25 L0.25,0.25 Z" transform="translate(-78, -124)"></path><path d="M0.25,248.085 L52.252,248.085 L52.252,0.25 L0.25,0.25 Z" transform="translate(20, -124)"></path></g><g fill="currentColor" fill-rule="evenodd"><g opacity="1" style="transform: translateX(128.81px); transform-origin: 0.0439987px 0px;"><path d="M-76.956,-123.918 L-76.956,123.918 L76.956,123.918 L76.956,82.612 L-24.954,82.612 L-24.954,17.702 L69.976,17.702 L69.976,-23.604 L-24.954,-23.604 L-24.954,-82.613 L76.956,-82.613 L76.956,-123.918 Z" transform="translate(77, 0)"></path></g><g opacity="1" style="transform: translateX(314.12px); transform-origin: 0.395px 0px;"><path d="M-24.605,123.918 L24.604,123.918 L24.604,-123.918 L-24.605,-123.918 Z" transform="translate(25, 0)"></path></g><g opacity="1" style="transform: translateX(393.03px) translateY(31.07px); transform-origin: 0.363998px 0px;"><path d="M36.115,-20.658 C33.671,-54.695 21.807,-65.807 1.222,-65.807 C-19.362,-65.807 -32.274,-54.335 -35.761,-20.658 Z M-84.636,-0.173 C-84.636,-67.910 -50.753,-97.016 1.919,-97.016 C54.583,-97.016 84.636,-68.212 84.636,0.522 L84.636,11.632 L-36.112,11.632 C-34.369,51.904 -22.155,65.455 1.222,65.455 C19.711,65.455 31.224,54.682 33.318,35.929 L82.540,35.929 C79.399,76.912 45.196,97.016 1.222,97.016 C-54.603,97.016 -84.636,67.528 -84.636,-0.173 Z" transform="translate(85, 0)"></path></g><g opacity="1" style="transform: translateX(572.9px) translateY(31.07px); transform-origin: 0.224998px 0px;"><path d="M-37.518,-92.852 L-87.775,-92.852 L-27.048,92.852 L27.048,92.852 L87.775,-92.852 L37.518,-92.852 L-0.509,47.033 Z" transform="translate(88, 0)"></path></g><g opacity="1" style="transform: translateX(757.74px) translateY(31.07px); transform-origin: 0.363998px 0px;"><path d="M36.115,-20.658 C33.671,-54.695 21.807,-65.807 1.222,-65.807 C-19.362,-65.807 -32.274,-54.335 -35.761,-20.658 Z M-84.636,-0.173 C-84.636,-67.910 -50.753,-97.016 1.919,-97.016 C54.583,-97.016 84.636,-68.212 84.636,0.522 L84.636,11.632 L-36.112,11.632 C-34.369,51.904 -22.155,65.455 1.222,65.455 C19.711,65.455 31.224,54.682 33.318,35.929 L82.540,35.929 C79.399,76.912 45.196,97.016 1.222,97.016 C-54.603,97.016 -84.636,67.528 -84.636,-0.173 Z" transform="translate(85, 0)"></path></g><g opacity="1" style="transform: translateX(956.36px) translateY(28.99px); transform-origin: 0.68px 0px;"><path d="M-31.41,-14.405 C-31.41,-43.562 -17.45,-59.529 4.19,-59.529 C21.99,-59.529 32.11,-43.562 32.11,-24.471 L32.11,94.934 L81.32,94.934 L81.32,-32.108 C81.32,-75.149 57.24,-94.934 21.29,-94.934 C-2.79,-94.934 -22.69,-79.117 -31.41,-66.818 L-31.41,-90.769 L-81.32,-90.769 L-81.32,94.934 L-31.41,94.934 Z" transform="translate(82, 0)"></path></g><g opacity="1" style="transform: translateX(1160.36px); transform-origin: 0.135002px 0px;"><path d="M-74.865,-123.918 L-22.855,-123.918 L-22.855,82.612 L74.865,82.612 L74.865,123.918 L-74.865,123.918 Z" transform="translate(75, 0)"></path></g><g opacity="1" style="transform: translateX(1321.99px) translateY(31.07px); transform-origin: 0.444992px 0.00050354px;"><path d="M1.395,-60.57 C25.825,-60.57 39.095,-38.37 39.095,-0.173 C39.095,41.827 25.825,60.571 1.395,60.571 C-23.035,60.571 -36.995,41.827 -36.995,-0.173 C-36.995,-42.173 -23.035,-60.57 1.395,-60.57 Z M-86.555,-0.173 C-86.555,68.554 -49.56,97.017 -12.915,97.017 C5.583,97.017 30.365,82.439 37.695,70.984 L37.695,92.852 L86.555,92.852 L86.555,-92.851 L36.295,-92.851 L36.295,-72.719 C28.625,-85.215 9.435,-97.016 -11.515,-97.016 C-53.745,-97.016 -86.555,-69.243 -86.555,-0.173 Z" transform="translate(87, 0)"></path></g><g opacity="1" style="transform: translateX(1532.62px) translateY(2.09px); transform-origin: 0.970001px 0px;"><path d="M-1.92,-31.24 C22.51,-31.24 36.47,-2.43 36.47,28.81 C36.47,70.81 22.51,89.554 -1.92,89.554 C-26.35,89.554 -39.61,70.81 -39.61,28.81 C-39.61,-13.19 -26.35,-31.24 -1.92,-31.24 Z M-37.17,99.967 C-30.19,114.545 -7.5,126 11,126 C53.92,126 86.03,83.81 86.03,28.81 C86.03,-42 65.09,-68.033 12.04,-68.033 C-8.9,-68.033 -28.44,-56.579 -36.82,-43.736 L-36.82,-126 L-86.03,-126 L-86.03,121.835 L-37.17,121.835 Z" transform="translate(87, 0)"></path></g><g opacity="1" style="transform: translateX(1725.07px) translateY(31.07px); transform-origin: 0.824997px 1.52588e-05px;"><path d="M-78.175,37.661 L-28.975,37.661 C-28.275,57.099 -17.805,66.471 0.695,66.471 C19.195,66.471 29.665,58.14 29.665,43.561 C29.665,30.371 21.635,25.512 4.185,21.347 L-10.825,17.529 C-53.405,6.769 -74.685,-4.685 -74.685,-39.743 C-74.685,-74.801 -41.885,-97.016 -0.005,-97.016 C41.875,-97.016 73.635,-80.702 75.035,-42.173 L25.825,-42.173 C24.775,-59.181 14.305,-66.471 -0.705,-66.471 C-15.705,-66.471 -26.175,-59.182 -26.175,-45.298 C-26.175,-32.455 -17.805,-27.596 -3.145,-24.124 L12.215,-20.305 C52.695,-10.239 78.175,-0.174 78.175,37.314 C78.175,74.801 44.675,97.016 -0.705,97.016 C-49.915,97.016 -77.135,78.619 -78.175,37.661 Z" transform="translate(79, 0)"></path></g></g></g></svg>